<?xml version="1.0" encoding="UTF-8"?>
<!-- Generator: Adobe Illustrator 21.0.2, SVG Export Plug-In . SVG Version: 6.00 Build 0)  -->
<svg version="1.1" id="Layer_1" xmlns="http://www.w3.org/2000/svg" xmlns:xlink="http://www.w3.org/1999/xlink" x="0px" y="0px" viewBox="0 0 35.7 28" style="enable-background:new 0 0 35.7 28;" xml:space="preserve">
<g>
	<path d="M35.7,4.5c0.1-0.3,0.1-0.6-0.1-0.9c-0.2-0.3-0.5-0.4-0.8-0.4H13.4c-0.5,0-1,0.4-1,1s0.4,1,1,1h19.9l-0.7,1.8   c0,0-0.1,0-0.1,0H17.2c-0.5,0-1,0.4-1,1s0.4,1,1,1h14.6l-0.7,1.8H14.6c-0.5,0-1,0.4-1,1s0.4,1,1,1h15.7l-2,4.8H13.1L6.7,0.6   C6.5,0.2,6.2,0,5.8,0H1C0.4,0,0,0.4,0,1c0,0.5,0.4,1,1,1h4.1l6.4,16.7c0.1,0.4,0.5,0.6,0.9,0.6H29c0.4,0,0.7-0.2,0.9-0.6l2.8-6.7   c0,0,0,0,0,0L35.7,4.5z"/>
	<path d="M13.3,20.4c-2.1,0-3.8,1.7-3.8,3.8s1.7,3.8,3.8,3.8c2.1,0,3.8-1.7,3.8-3.8S15.4,20.4,13.3,20.4z M13.3,26.1   c-1,0-1.8-0.8-1.8-1.8s0.8-1.8,1.8-1.8c1,0,1.8,0.8,1.8,1.8S14.3,26.1,13.3,26.1z"/>
	<path d="M28.4,20.4c-2.1,0-3.8,1.7-3.8,3.8s1.7,3.8,3.8,3.8s3.8-1.7,3.8-3.8S30.5,20.4,28.4,20.4z M28.4,26.1c-1,0-1.8-0.8-1.8-1.8   s0.8-1.8,1.8-1.8s1.8,0.8,1.8,1.8S29.5,26.1,28.4,26.1z"/>
</g>
</svg>